<svg width="60" height="60" viewBox="0 0 60 60" fill="none" xmlns="http://www.w3.org/2000/svg">
<rect x="0.25" y="0.25" width="59.5" height="59.5" fill="#10171E" stroke="white" stroke-width="0.5"/>
<path d="M23.2222 14H17V15.875H21.8889L23.7407 21.5H25.6852L23.2222 14Z" fill="white"/>
<path d="M34.5925 33.6876C34.5925 32.7867 34.4044 31.8831 34.05 31.0756L34.0482 31.0737C33.6105 30.0841 33.5183 28.8948 33.7751 27.6424C33.8126 27.4664 33.8714 27.2989 33.9171 27.1251H22.2961C22.6536 28.4712 22.5928 29.9367 22.0617 31.3292C21.6277 32.481 21.5156 33.7197 21.7362 34.9062C22.1985 37.4566 24.298 39.7606 27.1851 40.1636V44.1251H22.5554V46.0001H33.6666V44.1251H29.0369V40.1609C32.3366 39.6751 34.5925 36.8528 34.5925 33.6876Z" fill="white"/>
<path d="M21.6669 25.25H24.9816L23.7409 21.5H20.2965L21.6669 25.25Z" fill="white"/>
<path d="M34.5555 25.25L35.9259 21.5H25.6852L26.9259 25.25H34.5555Z" fill="white"/>
<path d="M35.5185 15.875C32.9428 15.875 30.7316 17.4159 29.6871 19.625H38.5892L35.8259 27.1497C35.7265 27.4262 35.6505 27.732 35.5854 28.0378C35.5161 28.3754 35.5108 28.6908 35.5123 29.0019C35.5173 29.0019 35.5224 29.0037 35.5275 29.0037C36.7482 29.0037 37.9363 28.6613 38.9925 27.9811C40.8751 26.7689 42 24.697 42 22.4375C42 18.8193 39.092 15.875 35.5185 15.875Z" fill="white"/>
</svg>
