<svg width="60" height="60" viewBox="0 0 60 60" fill="none" xmlns="http://www.w3.org/2000/svg">
<rect width="60" height="60" fill="#10171E"/>
<rect x="0.25" y="0.25" width="59.5" height="59.5" stroke="white" stroke-opacity="0.3" stroke-width="0.5"/>
<path d="M34.2131 13H25.7868C25.0048 13 24.3701 13.6347 24.3701 14.4167V22.8487C24.3701 23.2297 24.5238 23.5952 24.7965 23.8616L29.0097 27.9812C29.2852 28.2504 29.6429 28.385 29.9999 28.385C30.3569 28.385 30.7154 28.2504 30.9902 27.9812L35.2034 23.8616C35.4761 23.5952 35.6298 23.2297 35.6298 22.8487V14.4167C35.6298 13.6347 34.9951 13 34.2131 13ZM32.7964 22.2529L29.9999 24.9871L27.2034 22.2529V15.8333H32.7964V22.2529Z" fill="white"/>
<path d="M35.2034 36.1392L30.9902 32.0188C30.4398 31.4797 29.5601 31.4797 29.0097 32.0188L24.7965 36.1392C24.5238 36.4055 24.3701 36.771 24.3701 37.1521V45.5834C24.3701 46.3653 25.0048 47 25.7868 47H34.2131C34.9951 47 35.6298 46.3653 35.6298 45.5834V37.1521C35.6298 36.771 35.4761 36.4055 35.2034 36.1392ZM27.2034 44.1667V37.7478L29.9999 35.0129L32.7964 37.7478V44.1667H27.2034Z" fill="white"/>
<path d="M27.9812 29.0091L23.8609 24.7959C23.5945 24.5232 23.229 24.3695 22.8479 24.3695H14.4167C13.6347 24.3695 13 25.0042 13 25.7862V34.2125C13 34.9952 13.6347 35.6292 14.4167 35.6292H22.8479C23.229 35.6292 23.5945 35.4754 23.8609 35.2027L27.9812 30.9903C28.5196 30.4399 28.5196 29.5595 27.9812 29.0091ZM22.2522 32.7958H15.8333V27.2035H22.2522L24.9871 30L22.2522 32.7958Z" fill="white"/>
<path d="M45.5833 24.3701H37.152C36.7709 24.3701 36.4054 24.5238 36.1391 24.7965L32.0187 29.0097C31.4804 29.5601 31.4804 30.4405 32.0187 30.9909L36.1391 35.2034C36.4054 35.4761 36.7709 35.6298 37.152 35.6298H45.5833C46.3653 35.6298 47 34.9951 47 34.2131V25.7868C47 25.0041 46.3653 24.3701 45.5833 24.3701ZM44.1667 32.7957H37.7477L35.0129 29.9999L37.7477 27.2034H44.1667V32.7957Z" fill="white"/>
</svg>
