<svg width="60" height="60" viewBox="0 0 60 60" fill="none" xmlns="http://www.w3.org/2000/svg">
<rect x="0.25" y="0.25" width="59.5" height="59.5" fill="#10171E" stroke="white" stroke-width="0.5"/>
<path d="M20.1791 19.3955L34.1319 15.587L33.393 14.0934C32.9096 13.1226 31.7305 12.7217 30.7597 13.2051L18.2689 19.3955H20.1791Z" fill="white"/>
<path d="M38.4632 15.697C38.2903 15.697 38.1173 15.7206 37.9444 15.7678L34.6665 16.6639L24.6558 19.3955H36.0185H40.9708L40.3576 17.1473C40.1218 16.2709 39.3279 15.697 38.4632 15.697Z" fill="white"/>
<path d="M43.0185 20.771H42.5705H41.9613H41.352H36.7024H19.6171H17.3768H15.4902H15.1404H13.9691C13.3481 20.771 12.7939 21.0579 12.4323 21.5099C12.2673 21.7182 12.1415 21.958 12.0707 22.2213C12.0275 22.3864 12 22.5593 12 22.7362V22.972V25.2123V44.6323C12 45.7171 12.8804 46.5975 13.9652 46.5975H43.0146C44.0994 46.5975 44.9798 45.7171 44.9798 44.6323V39.1494H33.3184C31.475 39.1494 29.9775 37.652 29.9775 35.8086V34.0085V33.3993V32.7901V31.438C29.9775 30.5341 30.3391 29.7126 30.9248 29.1113C31.4436 28.5767 32.1392 28.2151 32.9175 28.1247C33.0472 28.109 33.1808 28.1011 33.3144 28.1011H43.3447H43.954H44.5632H44.9798V22.7362C44.9837 21.6514 44.1033 20.771 43.0185 20.771Z" fill="white"/>
<path d="M46.3594 29.9801C46.1628 29.7993 45.9309 29.6618 45.6715 29.5714C45.4711 29.5046 45.2589 29.4653 45.0348 29.4653H44.9837H44.9444H44.3352H42.1381H33.3183C32.2335 29.4653 31.3531 30.3456 31.3531 31.4305V32.4091V33.0183V33.6275V35.8049C31.3531 36.8897 32.2335 37.7701 33.3183 37.7701H44.9837H45.0348C45.2589 37.7701 45.4711 37.7308 45.6715 37.664C45.9309 37.5775 46.1628 37.436 46.3594 37.2552C46.7524 36.8976 47 36.3788 47 35.805V31.4305C47 30.8566 46.7524 30.3377 46.3594 29.9801ZM37.4217 34.0087C37.4217 34.5511 36.9815 34.9913 36.4391 34.9913H35.7866C35.2442 34.9913 34.804 34.5511 34.804 34.0087V33.3563C34.804 33.0419 34.9495 32.7628 35.1813 32.5859C35.3504 32.4562 35.5587 32.3737 35.7866 32.3737H35.9517H36.4391C36.9815 32.3737 37.4217 32.8139 37.4217 33.3563V34.0087Z" fill="white"/>
</svg>
