<svg width="60" height="60" viewBox="0 0 60 60" fill="none" xmlns="http://www.w3.org/2000/svg">
<rect width="60" height="60" fill="#B42A40"/>
<path d="M25.0623 30.0241H24.0676V29.0674C24.0676 28.539 23.6222 28.1107 23.0729 28.1107C22.5236 28.1107 22.0782 28.539 22.0782 29.0674V30.0241H21.0835C20.5342 30.0241 20.0889 30.4525 20.0889 30.9809C20.0889 31.5093 20.5342 31.9376 21.0835 31.9376H22.0782V32.8944C22.0782 33.4228 22.5236 33.8511 23.0729 33.8511C23.6222 33.8511 24.0676 33.4228 24.0676 32.8944V31.9376H25.0623C25.6116 31.9376 26.0569 31.5093 26.0569 30.9809C26.0569 30.4525 25.6116 30.0241 25.0623 30.0241Z" fill="white"/>
<path d="M28.0469 32.8943C28.0469 33.4227 28.4922 33.8511 29.0416 33.8511H33.0203C33.5696 33.8511 34.0149 33.4227 34.0149 32.8943C34.0149 32.3659 33.5696 31.9376 33.0203 31.9376H29.0416C28.4922 31.9376 28.0469 32.3659 28.0469 32.8943Z" fill="white"/>
<path d="M38.9878 30.0241C39.5372 30.0241 39.9825 29.5958 39.9825 29.0674C39.9825 28.539 39.5372 28.1107 38.9878 28.1107C38.4385 28.1107 37.9932 28.539 37.9932 29.0674C37.9932 29.5958 38.4385 30.0241 38.9878 30.0241Z" fill="white"/>
<path d="M38.9878 33.8511C39.5372 33.8511 39.9825 33.4227 39.9825 32.8943C39.9825 32.3659 39.5372 31.9376 38.9878 31.9376C38.4385 31.9376 37.9932 32.3659 37.9932 32.8943C37.9932 33.4227 38.4385 33.8511 38.9878 33.8511Z" fill="white"/>
<path d="M40.9776 31.9376C41.5269 31.9376 41.9723 31.5093 41.9723 30.9809C41.9723 30.4525 41.5269 30.0241 40.9776 30.0241C40.4282 30.0241 39.9829 30.4525 39.9829 30.9809C39.9829 31.5093 40.4282 31.9376 40.9776 31.9376Z" fill="white"/>
<path d="M36.9986 31.9376C37.5479 31.9376 37.9933 31.5093 37.9933 30.9809C37.9933 30.4525 37.5479 30.0241 36.9986 30.0241C36.4492 30.0241 36.0039 30.4525 36.0039 30.9809C36.0039 31.5093 36.4492 31.9376 36.9986 31.9376Z" fill="white"/>
<path d="M28.3531 27.801C27.7196 26.3498 26.527 24.3456 23.5046 24.3456C16.5356 24.3456 14.0611 37.8817 14.0611 40.6184C14.0611 44.2413 16.1747 45.5267 17.9846 45.5267C21.1678 45.5267 24.5916 40.2922 26.2433 37.678H35.8179C37.4563 40.2714 40.9209 45.5189 44.0086 45.526C46.0674 45.5654 48 44.0364 48 40.6184C48 39.4679 46.1353 24.3456 38.5565 24.3456C35.5342 24.3456 34.3415 26.3498 33.7081 27.801C33.3772 27.1563 32.8018 26.6479 32.0993 26.3878C32.1309 25.8857 32.151 25.2142 32.1114 24.4822C31.869 19.9978 29.5308 17.3773 22.8952 18.5586C17.327 19.5324 15.266 17.192 16.2023 14.0957C16.3582 13.591 16.0607 13.0597 15.5362 12.9073C15.0102 12.7547 14.4552 13.0409 14.2965 13.5468C13.0332 17.5712 15.7675 21.7494 23.2533 20.4409C29.0416 19.4207 30.4297 21.4451 30.1106 26.3368C29.3406 26.5774 28.707 27.1113 28.3531 27.801V27.801ZM33.0199 30.0241C33.2843 30.024 34.1566 30.0243 34.2615 30.0239C34.9803 30.0196 35.1668 29.4589 35.3169 29.0857C35.9616 27.4842 36.6094 26.2591 38.5565 26.2591C43.6207 26.2591 45.9785 38.1519 46.0106 40.6185C46.0106 42.2218 45.6619 43.3724 44.0154 43.6126C43.499 43.6126 41.4839 43.0803 37.2341 36.231C37.0546 35.9417 36.7302 35.7646 36.38 35.7646H25.6811C25.3308 35.7646 25.0064 35.9417 24.827 36.231C23.3874 38.5511 20.4638 43.1036 17.9845 43.6133C17.403 43.6133 16.0504 43.3215 16.0504 40.6201C16.0735 38.8447 18.1863 26.2591 23.5046 26.2591C25.4516 26.2591 26.0995 27.4841 26.7442 29.0857C26.9532 29.6051 27.1309 30.0203 27.8 30.0238C27.8017 30.0238 27.8033 30.024 27.805 30.024H29.0412C29.5905 30.024 30.0358 29.5957 30.0358 29.0673C30.0358 28.54 30.4816 28.1111 31.0297 28.1106C31.0304 28.1106 31.0311 28.1107 31.0318 28.1107H31.0323C31.58 28.1116 32.0252 28.5404 32.0252 29.0674C32.0252 29.5957 32.4706 30.0241 33.0199 30.0241V30.0241Z" fill="white"/>
</svg>
