<svg width="46" height="50" viewBox="0 0 46 50" fill="none" xmlns="http://www.w3.org/2000/svg">
<path d="M21.4706 27.8867H24.5302C24.9481 27.8867 25.2869 27.5586 25.2869 27.1539C25.2869 26.7492 24.9481 26.4211 24.5302 26.4211H21.4706C21.0527 26.4211 20.7139 26.7492 20.7139 27.1539C20.7139 27.5586 21.0526 27.8867 21.4706 27.8867Z" fill="white"/>
<path d="M19.5444 9.18883C19.2267 8.9261 18.749 8.96245 18.4776 9.27012L10.6193 18.1801C10.3479 18.4878 10.3855 18.9504 10.7032 19.2132C10.8458 19.3311 11.0205 19.3888 11.1944 19.3888C11.4081 19.3888 11.6204 19.3015 11.7702 19.1319L19.6284 10.222C19.8997 9.9142 19.8621 9.45166 19.5444 9.18883Z" fill="white"/>
<path d="M10.6919 14.5112C10.8361 14.6352 11.0156 14.6963 11.1944 14.6963C11.403 14.6963 11.6107 14.6133 11.7602 14.4504L13.8842 12.1362C14.1619 11.8337 14.1337 11.3706 13.8214 11.1017C13.5089 10.8328 13.0307 10.8601 12.7531 11.1626L10.6291 13.4768C10.3515 13.7791 10.3797 14.2423 10.6919 14.5112Z" fill="white"/>
<path d="M41.7389 40.9131C41.5329 40.2839 40.9366 39.8611 40.255 39.8611H14.655C14.2371 39.8611 13.8983 40.1892 13.8983 40.5939C13.8983 40.9986 14.2371 41.3267 14.655 41.3267H40.2551C40.274 41.3267 40.2907 41.3385 40.2963 41.3559L42.6278 48.4799C42.6302 48.4869 42.6344 48.5001 42.6215 48.5173C42.6086 48.5344 42.5942 48.5344 42.5866 48.5344H3.41253C3.40487 48.5344 3.39064 48.5344 3.37763 48.5173C3.36471 48.5001 3.36895 48.4869 3.37127 48.4799L5.70278 41.3559C5.70853 41.3384 5.72508 41.3267 5.74405 41.3267H11.2393C11.6572 41.3267 11.996 40.9986 11.996 40.5939C11.996 40.1892 11.6572 39.8611 11.2393 39.8611H5.74415C5.06252 39.8611 4.46615 40.2839 4.26023 40.9131L1.92872 48.0371C1.77708 48.5003 1.86011 48.9909 2.15653 49.383C2.45295 49.775 2.9108 50 3.41253 50H42.5865C43.0883 50 43.5461 49.775 43.8425 49.383C44.1389 48.9909 44.2219 48.5003 44.0703 48.0371L41.7389 40.9131Z" fill="white"/>
<path d="M42.9737 0H3.02605C1.3575 0 0 1.31462 0 2.93047V27.7491C0 29.3649 1.3575 30.6796 3.02605 30.6796H17.8841C17.8322 32.1518 17.6828 34.5945 17.3571 35.9641H14.1001C13.6822 35.9641 13.3434 36.2922 13.3434 36.6969C13.3434 37.1016 13.6822 37.4297 14.1001 37.4297H31.8999C32.3178 37.4297 32.6566 37.1016 32.6566 36.6969C32.6566 36.2922 32.3178 35.9641 31.8999 35.9641H28.6429C28.3172 34.5945 28.1678 32.1518 28.1159 30.6796H42.9739C44.6425 30.6796 46 29.3649 46 27.7491V2.93047C45.9998 1.31462 44.6423 0 42.9737 0V0ZM18.9021 35.9641C19.236 34.3076 19.3567 31.8803 19.3979 30.6796H26.6018C26.643 31.8803 26.7637 34.3076 27.0976 35.9641H18.9021ZM44.4864 27.7491C44.4864 28.5568 43.8078 29.214 42.9737 29.214H3.02605C2.19198 29.214 1.51338 28.5568 1.51338 27.7491V25.0934H44.4865V27.7491H44.4864ZM44.4864 23.6278H42.4986V12.8112C42.4986 12.4065 42.1598 12.0784 41.742 12.0784C41.3241 12.0784 40.9853 12.4065 40.9853 12.8112V23.6278H5.01454V4.96753C5.01454 4.86074 5.10423 4.77388 5.2145 4.77388H40.7853C40.8956 4.77388 40.9853 4.86074 40.9853 4.96753V9.45826C40.9853 9.86296 41.3241 10.1911 41.742 10.1911C42.1598 10.1911 42.4986 9.86296 42.4986 9.45826V4.96753C42.4986 4.05262 41.73 3.3083 40.7853 3.3083H5.2145C4.26975 3.3083 3.50115 4.05262 3.50115 4.96753V23.6278H1.51338V2.93047C1.51338 2.12275 2.19198 1.46558 3.02605 1.46558H42.9737C43.8078 1.46558 44.4864 2.12275 44.4864 2.93047V23.6278Z" fill="white"/>
<path d="M11.2395 42.8866H10.2127C9.79485 42.8866 9.45605 43.2147 9.45605 43.6194C9.45605 44.0241 9.79485 44.3522 10.2127 44.3522H11.2395C11.6574 44.3522 11.9962 44.0241 11.9962 43.6194C11.9962 43.2147 11.6574 42.8866 11.2395 42.8866Z" fill="white"/>
<path d="M14.3197 44.3522H15.3465C15.7644 44.3522 16.1031 44.0241 16.1031 43.6194C16.1031 43.2147 15.7644 42.8866 15.3465 42.8866H14.3197C13.9018 42.8866 13.563 43.2147 13.563 43.6194C13.563 44.0241 13.9018 44.3522 14.3197 44.3522Z" fill="white"/>
<path d="M18.4276 44.3522H19.4544C19.8723 44.3522 20.2111 44.0241 20.2111 43.6194C20.2111 43.2147 19.8723 42.8866 19.4544 42.8866H18.4276C18.0097 42.8866 17.6709 43.2147 17.6709 43.6194C17.6709 44.0241 18.0097 44.3522 18.4276 44.3522Z" fill="white"/>
<path d="M22.534 44.3522H23.5608C23.9787 44.3522 24.3175 44.0241 24.3175 43.6194C24.3175 43.2147 23.9787 42.8866 23.5608 42.8866H22.534C22.1161 42.8866 21.7773 43.2147 21.7773 43.6194C21.7773 44.0241 22.1161 44.3522 22.534 44.3522Z" fill="white"/>
<path d="M26.6415 44.3522H27.6682C28.0861 44.3522 28.4249 44.0241 28.4249 43.6194C28.4249 43.2147 28.0861 42.8866 27.6682 42.8866H26.6415C26.2236 42.8866 25.8848 43.2147 25.8848 43.6194C25.8848 44.0241 26.2236 44.3522 26.6415 44.3522Z" fill="white"/>
<path d="M30.7494 44.3522H31.7761C32.194 44.3522 32.5328 44.0241 32.5328 43.6194C32.5328 43.2147 32.194 42.8866 31.7761 42.8866H30.7494C30.3315 42.8866 29.9927 43.2147 29.9927 43.6194C29.9927 44.0241 30.3315 44.3522 30.7494 44.3522Z" fill="white"/>
<path d="M34.7601 44.3522H35.7869C36.2048 44.3522 36.5436 44.0241 36.5436 43.6194C36.5436 43.2147 36.2048 42.8866 35.7869 42.8866H34.7601C34.3422 42.8866 34.0034 43.2147 34.0034 43.6194C34.0034 44.0241 34.3422 44.3522 34.7601 44.3522Z" fill="white"/>
<path d="M11.2395 45.509H10.2127C9.79485 45.509 9.45605 45.8371 9.45605 46.2418C9.45605 46.6465 9.79485 46.9746 10.2127 46.9746H11.2395C11.6574 46.9746 11.9962 46.6465 11.9962 46.2418C11.9962 45.8371 11.6574 45.509 11.2395 45.509Z" fill="white"/>
<path d="M14.3197 46.9746H15.3465C15.7644 46.9746 16.1031 46.6465 16.1031 46.2418C16.1031 45.8371 15.7644 45.509 15.3465 45.509H14.3197C13.9018 45.509 13.563 45.8371 13.563 46.2418C13.563 46.6465 13.9018 46.9746 14.3197 46.9746Z" fill="white"/>
<path d="M18.4276 46.9746H19.4544C19.8723 46.9746 20.2111 46.6465 20.2111 46.2418C20.2111 45.8371 19.8723 45.509 19.4544 45.509H18.4276C18.0097 45.509 17.6709 45.8371 17.6709 46.2418C17.6709 46.6465 18.0097 46.9746 18.4276 46.9746Z" fill="white"/>
<path d="M22.534 46.9746H23.5608C23.9787 46.9746 24.3175 46.6465 24.3175 46.2418C24.3175 45.8371 23.9787 45.509 23.5608 45.509H22.534C22.1161 45.509 21.7773 45.8371 21.7773 46.2418C21.7773 46.6465 22.1161 46.9746 22.534 46.9746Z" fill="white"/>
<path d="M26.6415 46.9746H27.6682C28.0861 46.9746 28.4249 46.6465 28.4249 46.2418C28.4249 45.8371 28.0861 45.509 27.6682 45.509H26.6415C26.2236 45.509 25.8848 45.8371 25.8848 46.2418C25.8848 46.6465 26.2236 46.9746 26.6415 46.9746Z" fill="white"/>
<path d="M30.7494 46.9746H31.7761C32.194 46.9746 32.5328 46.6465 32.5328 46.2418C32.5328 45.8371 32.194 45.509 31.7761 45.509H30.7494C30.3315 45.509 29.9927 45.8371 29.9927 46.2418C29.9927 46.6465 30.3315 46.9746 30.7494 46.9746Z" fill="white"/>
<path d="M34.7601 46.9746H35.7869C36.2048 46.9746 36.5436 46.6465 36.5436 46.2418C36.5436 45.8371 36.2048 45.509 35.7869 45.509H34.7601C34.3422 45.509 34.0034 45.8371 34.0034 46.2418C34.0034 46.6465 34.3422 46.9746 34.7601 46.9746Z" fill="white"/>
</svg>
