<svg width="57" height="56" viewBox="0 0 57 56" fill="none" xmlns="http://www.w3.org/2000/svg">
<g filter="url(#filter0_d_1_1715)">
<path d="M36.089 37.5625V40.375C36.089 43.4767 33.4955 46 30.3075 46H15.7815C12.5935 46 10 43.4767 10 40.375V15.625C10 12.5233 12.5935 10 15.7815 10H30.3075C33.4955 10 36.089 12.5233 36.089 15.625V18.4375C36.089 19.2142 35.442 19.8438 34.6437 19.8438C33.8453 19.8438 33.1983 19.2142 33.1983 18.4375V15.625C33.1983 14.0743 31.9014 12.8125 30.3075 12.8125H15.7815C14.1876 12.8125 12.8908 14.0743 12.8908 15.625V40.375C12.8908 41.9257 14.1876 43.1875 15.7815 43.1875H30.3075C31.9014 43.1875 33.1983 41.9257 33.1983 40.375V37.5625C33.1983 36.7858 33.8453 36.1562 34.6437 36.1562C35.442 36.1562 36.089 36.7858 36.089 37.5625ZM45.9433 25.5844L42.7067 22.4354C42.1421 21.8861 41.2269 21.8861 40.6626 22.4354C40.098 22.9845 40.098 23.8749 40.6626 24.424L42.9647 26.6641H25.6101C24.8117 26.6641 24.1647 27.2936 24.1647 28.0703C24.1647 28.847 24.8117 29.4766 25.6101 29.4766H42.9647L40.6626 31.7167C40.098 32.2657 40.098 33.1562 40.6626 33.7052C40.9449 33.9799 41.3147 34.1172 41.6845 34.1172C42.0546 34.1172 42.4244 33.9799 42.7067 33.7052L45.9433 30.5562C47.3522 29.1854 47.3522 26.9552 45.9433 25.5844Z" fill="#B42A40"/>
</g>
<defs>
<filter id="filter0_d_1_1715" x="0" y="0" width="57" height="56" filterUnits="userSpaceOnUse" color-interpolation-filters="sRGB">
<feFlood flood-opacity="0" result="BackgroundImageFix"/>
<feColorMatrix in="SourceAlpha" type="matrix" values="0 0 0 0 0 0 0 0 0 0 0 0 0 0 0 0 0 0 127 0" result="hardAlpha"/>
<feOffset/>
<feGaussianBlur stdDeviation="5"/>
<feColorMatrix type="matrix" values="0 0 0 0 0.705882 0 0 0 0 0.164706 0 0 0 0 0.25098 0 0 0 0.4 0"/>
<feBlend mode="normal" in2="BackgroundImageFix" result="effect1_dropShadow_1_1715"/>
<feBlend mode="normal" in="SourceGraphic" in2="effect1_dropShadow_1_1715" result="shape"/>
</filter>
</defs>
</svg>
